<!DOCTYPE svg PUBLIC "-//W3C//DTD SVG 1.1//EN" "http://www.w3.org/Graphics/SVG/1.1/DTD/svg11.dtd">

<!-- Uploaded to: SVG Repo, www.svgrepo.com, Transformed by: SVG Repo Mixer Tools -->
<svg fill="#6f2525" height="800px" width="800px" version="1.1" id="Capa_1" xmlns="http://www.w3.org/2000/svg" xmlns:xlink="http://www.w3.org/1999/xlink" viewBox="-45.5 -45.5 546.00 546.00" xml:space="preserve" stroke="#6f2525" stroke-width="0.00455" transform="matrix(1, 0, 0, 1, 0, 0)rotate(0)">

<g id="SVGRepo_bgCarrier" stroke-width="0" transform="translate(13.650000000000006,13.650000000000006), scale(0.94)">

<path transform="translate(-45.5, -45.5), scale(17.0625)" d="M16,30.84100336368595C18.057874596167913,31.578754794385485,20.76777783547363,31.91391813703098,22.480407176826972,30.55523282902619C24.340544385411818,29.079524667807757,23.47100526891032,25.882188100590593,24.762283228989602,23.889595256665373C25.803944125864113,22.282190721718116,28.009289829572502,21.813478286290703,29.144955889064814,20.271055074469892C30.44288837485526,18.508247093438538,31.67820285327199,16.526089373725522,31.793498651009408,14.340036402116166C31.910871765331652,12.11459670364986,31.004970623877554,9.906558376625375,29.7901321413839,8.0382634960115C28.595137439606297,6.200486280468391,26.73889656741745,4.944108016284391,24.90399634248464,3.744700414262688C23.12163936294162,2.5796384224813,21.2927260419768,0.952522047872948,19.16814372488116,1.0950556407689067C16.960048992266078,1.2431918994404496,15.609677895428145,3.6791615222195486,13.556865248313409,4.505954685702081C11.899042476434586,5.173661276452865,10.0318262961257,4.881396954683732,8.339604680657498,5.4563703787949756C6.292972751551061,6.1517633210770315,3.6475504744799254,6.372381176196055,2.5621747926628338,8.241667999220738C1.4776505496698855,10.10948843286408,3.0303334023554034,12.474973431508626,3.0103168302827097,14.634729284103425C2.9922162278878783,16.587755097702082,2.0319773816753686,18.494867768441466,2.4494653456434197,20.40283560368701C2.876549069463975,22.354657161035835,3.7565082310303324,24.406937166688746,5.397884600249707,25.546187584047566C7.056318577155208,26.697277386351843,9.49752071453781,25.64635499845629,11.303583893391885,26.54832328099787C13.221969520408411,27.506386658576066,13.981478454916417,30.11736006658888,16,30.84100336368595" fill="#7ed0ec" strokewidth="0"/>

</g>

<g id="SVGRepo_tracerCarrier" stroke-linecap="round" stroke-linejoin="round" stroke="#CCCCCC" stroke-width="0.9099999999999999"/>

<g id="SVGRepo_iconCarrier"> <g> <path d="M347.5,400H260v-32.5c0-4.142-3.358-7.5-7.5-7.5s-7.5,3.358-7.5,7.5V400h-35v-32.5c0-4.142-3.358-7.5-7.5-7.5 s-7.5,3.358-7.5,7.5V400h-87.5c-4.142,0-7.5,3.358-7.5,7.5s3.358,7.5,7.5,7.5h240c4.142,0,7.5-3.358,7.5-7.5S351.642,400,347.5,400 z"/> <path d="M437.5,40h-420C7.851,40,0,47.851,0,57.5v270c0,9.649,7.851,17.5,17.5,17.5H350v2.5c0,4.142,3.358,7.5,7.5,7.5 s7.5-3.358,7.5-7.5V345h15v2.5c0,4.142,3.358,7.5,7.5,7.5s7.5-3.358,7.5-7.5V345h15v2.5c0,4.142,3.358,7.5,7.5,7.5 s7.5-3.358,7.5-7.5V345h12.5c9.649,0,17.5-7.851,17.5-17.5v-270C455,47.851,447.149,40,437.5,40z M440,327.5 c0,1.355-1.145,2.5-2.5,2.5h-420c-1.355,0-2.5-1.145-2.5-2.5v-270c0-1.355,1.145-2.5,2.5-2.5h420c1.355,0,2.5,1.145,2.5,2.5V327.5z "/> <path d="M417.5,70h-380c-4.142,0-7.5,3.358-7.5,7.5s3.358,7.5,7.5,7.5H410v152.5c0,4.142,3.358,7.5,7.5,7.5s7.5-3.358,7.5-7.5v-160 C425,73.358,421.642,70,417.5,70z"/> <path d="M417.5,260c-4.142,0-7.5,3.358-7.5,7.5V300H45V107.5c0-4.142-3.358-7.5-7.5-7.5s-7.5,3.358-7.5,7.5v200 c0,4.142,3.358,7.5,7.5,7.5h380c4.142,0,7.5-3.358,7.5-7.5v-40C425,263.358,421.642,260,417.5,260z"/> </g> </g>

</svg>
