<!DOCTYPE svg PUBLIC "-//W3C//DTD SVG 1.1//EN" "http://www.w3.org/Graphics/SVG/1.1/DTD/svg11.dtd">
<!-- Uploaded to: SVG Repo, www.svgrepo.com, Transformed by: SVG Repo Mixer Tools -->
<svg fill="#000000" height="256px" width="256px" version="1.1" id="Layer_1" xmlns="http://www.w3.org/2000/svg" xmlns:xlink="http://www.w3.org/1999/xlink" viewBox="-22.83 -22.83 502.28 502.28" xml:space="preserve" stroke="#000000" stroke-width="0.004566209999999999">
<g id="SVGRepo_bgCarrier" stroke-width="0"/>
<g id="SVGRepo_tracerCarrier" stroke-linecap="round" stroke-linejoin="round" stroke="#CCCCCC" stroke-width="13.69863"> <g id="XMLID_727_"> <g> <g> <path d="M420.438,103.505L319.862,2.929C317.986,1.054,315.443,0,312.79,0C301.674,0,53.092,0,43.256,0c-5.522,0-10,4.477-10,10 v436.621c0,5.523,4.478,10,10,10h370.11c5.522,0,10-4.477,10-10V110.577C423.367,107.924,422.313,105.381,420.438,103.505z M403.368,436.621h-0.002H53.256V20h16.556v59.174c0,5.523,4.478,10,10,10c5.523,0,10-4.477,10-10V20h21.556v59.174 c0,5.523,4.478,10,10,10c5.522,0,10-4.477,10-10V20h21.556v59.174c0,5.523,4.478,10,10,10c5.522,0,10-4.477,10-10V20h21.555 v59.174c0,5.523,4.478,10,10,10c5.522,0,10-4.477,10-10V20h21.556v59.174c0,5.523,4.477,10,10,10c5.522,0,10-4.477,10-10V20 h21.556v59.174c0,5.523,4.478,10,10,10c5.523,0,10-4.477,10-10V20h11.059l94.719,94.719V436.621z"/> <path d="M69.811,178.311v232.956c0,5.523,4.478,10,10,10h297c5.522,0,10-4.477,10-10V178.311c0-5.523-4.478-10-10-10h-297 C74.289,168.311,69.811,172.788,69.811,178.311z M366.812,188.311v212.956h-277c0,0,0-212.956,0-212.956H366.812z"/> </g> </g> </g> </g>
<g id="SVGRepo_iconCarrier"> <g id="XMLID_727_"> <g> <g> <path d="M420.438,103.505L319.862,2.929C317.986,1.054,315.443,0,312.79,0C301.674,0,53.092,0,43.256,0c-5.522,0-10,4.477-10,10 v436.621c0,5.523,4.478,10,10,10h370.11c5.522,0,10-4.477,10-10V110.577C423.367,107.924,422.313,105.381,420.438,103.505z M403.368,436.621h-0.002H53.256V20h16.556v59.174c0,5.523,4.478,10,10,10c5.523,0,10-4.477,10-10V20h21.556v59.174 c0,5.523,4.478,10,10,10c5.522,0,10-4.477,10-10V20h21.556v59.174c0,5.523,4.478,10,10,10c5.522,0,10-4.477,10-10V20h21.555 v59.174c0,5.523,4.478,10,10,10c5.522,0,10-4.477,10-10V20h21.556v59.174c0,5.523,4.477,10,10,10c5.522,0,10-4.477,10-10V20 h21.556v59.174c0,5.523,4.478,10,10,10c5.523,0,10-4.477,10-10V20h11.059l94.719,94.719V436.621z"/> <path d="M69.811,178.311v232.956c0,5.523,4.478,10,10,10h297c5.522,0,10-4.477,10-10V178.311c0-5.523-4.478-10-10-10h-297 C74.289,168.311,69.811,172.788,69.811,178.311z M366.812,188.311v212.956h-277c0,0,0-212.956,0-212.956H366.812z"/> </g> </g> </g> </g>
</svg>