<!DOCTYPE svg PUBLIC "-//W3C//DTD SVG 1.1//EN" "http://www.w3.org/Graphics/SVG/1.1/DTD/svg11.dtd">
<!-- Uploaded to: SVG Repo, www.svgrepo.com, Transformed by: SVG Repo Mixer Tools -->
<svg height="256px" width="256px" version="1.1" id="Layer_1" xmlns="http://www.w3.org/2000/svg" xmlns:xlink="http://www.w3.org/1999/xlink" viewBox="-50.35 -50.35 604.17 604.17" xml:space="preserve" fill="#000000" transform="matrix(-1, 0, 0, -1, 0, 0)" stroke="#000000" stroke-width="1.5104009999999999">
<g id="SVGRepo_bgCarrier" stroke-width="0"/>
<g id="SVGRepo_tracerCarrier" stroke-linecap="round" stroke-linejoin="round" stroke="#CCCCCC" stroke-width="100.6934"> <g transform="translate(7 1)"> <path style="fill:#AAB1BA;" d="M133.8,3.267v17.067v51.2h34.133V3.267H133.8z M321.533,3.267v68.267h34.133v-51.2V3.267H321.533z"/> <path style="fill:#d6c9bd;" d="M82.6,395.8h324.267V105.667H82.6V395.8z M441,105.667v358.4c0,18.773-15.36,34.133-34.133,34.133 H82.6c-18.773,0-34.133-15.36-34.133-34.133v-358.4c0-18.773,15.36-34.133,34.133-34.133h51.2h34.133h153.6h34.133h51.2 C425.64,71.533,441,86.893,441,105.667L441,105.667z"/> <polygon style="fill:#656e72;" points="82.6,395.8 406.867,395.8 406.867,105.667 82.6,105.667 "/> </g> <path style="fill:#51565F;" d="M413.867,503.467H89.6c-21.333,0-38.4-17.067-38.4-38.4v-358.4c0-21.333,17.067-38.4,38.4-38.4 h46.933V25.6H4.267C1.707,25.6,0,23.893,0,21.333s1.707-4.267,4.267-4.267h132.267v-12.8c0-2.56,1.707-4.267,4.267-4.267h34.133 c2.56,0,4.267,1.707,4.267,4.267v64h145.067v-64c0-2.56,1.707-4.267,4.267-4.267h34.133c2.56,0,4.267,1.707,4.267,4.267v12.8H499.2 c2.56,0,4.267,1.707,4.267,4.267S501.76,25.6,499.2,25.6H366.933v42.667h46.933c21.333,0,38.4,17.067,38.4,38.4v358.4 C452.267,486.4,435.2,503.467,413.867,503.467z M89.6,76.8c-16.213,0-29.867,13.653-29.867,29.867v358.4 c0,16.213,13.653,29.867,29.867,29.867h324.267c16.213,0,29.867-13.653,29.867-29.867v-358.4c0-16.213-13.653-29.867-29.867-29.867 H89.6z M332.8,68.267h25.6V8.533h-25.6V68.267z M145.067,68.267h25.6V8.533h-25.6V68.267z M413.867,401.067H89.6 c-2.56,0-4.267-1.707-4.267-4.267V106.667c0-2.56,1.707-4.267,4.267-4.267h324.267c2.56,0,4.267,1.707,4.267,4.267V396.8 C418.133,399.36,416.427,401.067,413.867,401.067z M93.867,392.533H409.6v-281.6H93.867V392.533z M294.4,25.6h-85.333 c-2.56,0-4.267-1.707-4.267-4.267s1.707-4.267,4.267-4.267H294.4c2.56,0,4.267,1.707,4.267,4.267S296.96,25.6,294.4,25.6z"/> </g>
<g id="SVGRepo_iconCarrier"> <g transform="translate(7 1)"> <path style="fill:#AAB1BA;" d="M133.8,3.267v17.067v51.2h34.133V3.267H133.8z M321.533,3.267v68.267h34.133v-51.2V3.267H321.533z"/> <path style="fill:#d6c9bd;" d="M82.6,395.8h324.267V105.667H82.6V395.8z M441,105.667v358.4c0,18.773-15.36,34.133-34.133,34.133 H82.6c-18.773,0-34.133-15.36-34.133-34.133v-358.4c0-18.773,15.36-34.133,34.133-34.133h51.2h34.133h153.6h34.133h51.2 C425.64,71.533,441,86.893,441,105.667L441,105.667z"/> <polygon style="fill:#656e72;" points="82.6,395.8 406.867,395.8 406.867,105.667 82.6,105.667 "/> </g> <path style="fill:#51565F;" d="M413.867,503.467H89.6c-21.333,0-38.4-17.067-38.4-38.4v-358.4c0-21.333,17.067-38.4,38.4-38.4 h46.933V25.6H4.267C1.707,25.6,0,23.893,0,21.333s1.707-4.267,4.267-4.267h132.267v-12.8c0-2.56,1.707-4.267,4.267-4.267h34.133 c2.56,0,4.267,1.707,4.267,4.267v64h145.067v-64c0-2.56,1.707-4.267,4.267-4.267h34.133c2.56,0,4.267,1.707,4.267,4.267v12.8H499.2 c2.56,0,4.267,1.707,4.267,4.267S501.76,25.6,499.2,25.6H366.933v42.667h46.933c21.333,0,38.4,17.067,38.4,38.4v358.4 C452.267,486.4,435.2,503.467,413.867,503.467z M89.6,76.8c-16.213,0-29.867,13.653-29.867,29.867v358.4 c0,16.213,13.653,29.867,29.867,29.867h324.267c16.213,0,29.867-13.653,29.867-29.867v-358.4c0-16.213-13.653-29.867-29.867-29.867 H89.6z M332.8,68.267h25.6V8.533h-25.6V68.267z M145.067,68.267h25.6V8.533h-25.6V68.267z M413.867,401.067H89.6 c-2.56,0-4.267-1.707-4.267-4.267V106.667c0-2.56,1.707-4.267,4.267-4.267h324.267c2.56,0,4.267,1.707,4.267,4.267V396.8 C418.133,399.36,416.427,401.067,413.867,401.067z M93.867,392.533H409.6v-281.6H93.867V392.533z M294.4,25.6h-85.333 c-2.56,0-4.267-1.707-4.267-4.267s1.707-4.267,4.267-4.267H294.4c2.56,0,4.267,1.707,4.267,4.267S296.96,25.6,294.4,25.6z"/> </g>
</svg>